<svg width="20" height="20" viewBox="0 0 20 20" fill="none" xmlns="http://www.w3.org/2000/svg">
<path fill-rule="evenodd" clip-rule="evenodd" d="M9.16676 2.65838C9.22433 2.47584 9.33858 2.31641 9.49294 2.20324C9.64729 2.09007 9.8337 2.02905 10.0251 2.02905C10.2165 2.02905 10.4029 2.09007 10.5573 2.20324C10.7116 2.31641 10.8259 2.47584 10.8834 2.65838L12.4334 7.42505H17.4334C17.6317 7.41755 17.8269 7.47516 17.9893 7.58908C18.1517 7.70299 18.2724 7.86695 18.3329 8.05589C18.3933 8.24484 18.3903 8.44838 18.3242 8.63542C18.2581 8.82247 18.1325 8.98273 17.9668 9.09171L13.9084 12.0334L15.4584 16.8084C15.5197 16.9903 15.5213 17.187 15.4628 17.3698C15.4044 17.5526 15.2891 17.712 15.1336 17.8246C14.9782 17.9372 14.7908 17.9972 14.5989 17.9958C14.407 17.9944 14.2205 17.9316 14.0668 17.8167L10.0001 14.8417L5.94176 17.7917C5.78802 17.9066 5.60157 17.9694 5.40963 17.9708C5.2177 17.9722 5.03034 17.9122 4.87491 17.7996C4.71948 17.687 4.60412 17.5276 4.54569 17.3448C4.48725 17.162 4.4888 16.9653 4.5501 16.7834L6.1001 12.0084L2.04176 9.06671C1.876 8.95773 1.75047 8.79747 1.68437 8.61042C1.61826 8.42338 1.6152 8.21984 1.67566 8.03089C1.73612 7.84195 1.85678 7.67799 2.0192 7.56408C2.18161 7.45016 2.37686 7.39255 2.5751 7.40005H7.5751L9.16676 2.65838Z" fill="#FBAD39"/>
</svg>
